<?xml version="1.0" standalone="no"?>
<!DOCTYPE svg PUBLIC "-//W3C//DTD SVG 20010904//EN"
 "http://www.w3.org/TR/2001/REC-SVG-20010904/DTD/svg10.dtd">
<svg version="1.0" xmlns="http://www.w3.org/2000/svg"
 width="700.000000pt" height="700.000000pt" viewBox="0 0 700.000000 700.000000"
 preserveAspectRatio="xMidYMid meet">
<metadata>
Created by potrace 1.11, written by Peter Selinger 2001-2013
</metadata>
<g transform="translate(0.000000,700.000000) scale(0.100000,-0.100000)"
fill="#000000" stroke="none">
<path d="M3497 6835 c-1 -1 -58 -5 -127 -9 -69 -3 -136 -8 -150 -10 -14 -2
-47 -7 -75 -10 -48 -6 -80 -11 -135 -21 -14 -3 -42 -8 -63 -11 -119 -18 -378
-92 -551 -158 -193 -73 -420 -187 -586 -294 -57 -37 -261 -182 -270 -192 -3
-3 -17 -15 -32 -26 -94 -72 -306 -274 -399 -379 -251 -286 -446 -598 -586
-939 -38 -93 -104 -279 -119 -336 -38 -148 -66 -267 -74 -315 -5 -33 -12 -69
-14 -80 -4 -20 -14 -94 -21 -150 -24 -198 -24 -623 0 -755 2 -14 7 -45 10 -70
8 -64 24 -153 41 -240 9 -41 17 -84 20 -94 7 -35 55 -200 81 -276 60 -179 175
-436 253 -565 16 -27 35 -61 42 -75 7 -14 16 -29 20 -35 4 -5 45 -65 90 -131
142 -209 253 -341 438 -519 357 -347 794 -609 1284 -770 156 -51 458 -117 602
-131 28 -2 62 -7 75 -10 42 -10 520 -13 604 -4 195 21 215 24 300 40 28 5 66
12 85 15 112 18 444 115 545 160 17 7 55 23 85 35 170 70 355 170 538 291 721
479 1229 1222 1408 2059 12 56 35 188 40 225 3 22 7 49 9 60 29 141 27 632 -5
852 -20 145 -25 172 -63 343 -43 191 -134 441 -238 655 -123 253 -231 426
-409 648 -144 181 -432 453 -635 599 -272 196 -585 355 -898 457 -117 38 -299
88 -357 97 -14 3 -47 9 -75 14 -82 16 -254 39 -350 45 -88 7 -333 13 -338 10z"/>
</g>
</svg>
